<?xml version="1.0" encoding="UTF-8" standalone="no"?>
<svg
   width="121"
   height="16"
   version="1.1"
   id="svg4"
   sodipodi:docname="5stars.svg"
   inkscape:version="1.1 (c68e22c387, 2021-05-23)"
   xmlns:inkscape="http://www.inkscape.org/namespaces/inkscape"
   xmlns:sodipodi="http://sodipodi.sourceforge.net/DTD/sodipodi-0.dtd"
   xmlns="http://www.w3.org/2000/svg"
   xmlns:svg="http://www.w3.org/2000/svg">
  <defs
     id="defs8" />
  <sodipodi:namedview
     id="namedview6"
     pagecolor="#ffffff"
     bordercolor="#666666"
     borderopacity="1.0"
     inkscape:pageshadow="2"
     inkscape:pageopacity="0.0"
     inkscape:pagecheckerboard="0"
     showgrid="false"
     width="121px"
     inkscape:zoom="9.5495016"
     inkscape:cx="68.432891"
     inkscape:cy="39.740294"
     inkscape:window-width="1920"
     inkscape:window-height="1017"
     inkscape:window-x="1912"
     inkscape:window-y="-8"
     inkscape:window-maximized="1"
     inkscape:current-layer="svg4" />
  <path
     d="m 18.109762,6.097 a 0.297,0.297 0 0 0 -0.24,-0.202 l -5.36,-0.779 -2.397,-4.856 a 0.296,0.296 0 0 0 -0.5299994,0 l -2.399,4.857 -5.36,0.779 a 0.297,0.297 0 0 0 -0.165,0.505 l 3.88,3.78 -0.917,5.34 a 0.297,0.297 0 0 0 0.43,0.312 l 4.795,-2.52 4.7939994,2.52 a 0.296,0.296 0 0 0 0.43,-0.313 l -0.916,-5.338 3.88,-3.782 c 0.08,-0.08 0.11,-0.197 0.075,-0.304 z"
     fill="#ef9546"
     fill-rule="nonzero"
     id="path2" />
  <path
     d="m 43.816278,6.2076272 a 0.297,0.297 0 0 0 -0.24,-0.202 l -5.36,-0.779 -2.397,-4.85600005 a 0.296,0.296 0 0 0 -0.53,0 l -2.399,4.85700005 -5.36,0.779 a 0.297,0.297 0 0 0 -0.165,0.505 l 3.88,3.7799998 -0.917,5.34 a 0.297,0.297 0 0 0 0.43,0.312 l 4.795,-2.52 4.794,2.52 a 0.296,0.296 0 0 0 0.43,-0.313 l -0.916,-5.338 3.88,-3.7819998 c 0.08,-0.08 0.11,-0.197 0.075,-0.304 z"
     fill="#ef9546"
     fill-rule="nonzero"
     id="path2-3" />
  <path
     d="m 67.862137,6.0520862 a 0.297,0.297 0 0 0 -0.239996,-0.202 l -5.36,-0.779 -2.397,-4.85599994 a 0.296,0.296 0 0 0 -0.53,0 l -2.399,4.85699994 -5.36,0.779 a 0.297,0.297 0 0 0 -0.165,0.505 l 3.88,3.7799998 -0.917,5.339999 a 0.297,0.297 0 0 0 0.43,0.312 l 4.795,-2.52 4.794,2.52 a 0.296,0.296 0 0 0 0.43,-0.313 l -0.916,-5.337999 3.879996,-3.7819998 c 0.08,-0.08 0.11,-0.197 0.075,-0.304 z"
     fill="#ef9546"
     fill-rule="nonzero"
     id="path2-7" />
  <path
     d="m 94.225763,6.0490154 a 0.297,0.297 0 0 0 -0.24,-0.202 l -5.36,-0.779 -2.397,-4.8559999 a 0.296,0.296 0 0 0 -0.53,0 l -2.399,4.8569999 -5.36,0.779 a 0.297,0.297 0 0 0 -0.165,0.505 l 3.88,3.7800006 -0.917,5.34 a 0.297,0.297 0 0 0 0.43,0.312 l 4.795,-2.52 4.794,2.52 a 0.296,0.296 0 0 0 0.43,-0.313 l -0.916,-5.338 3.88,-3.7820006 c 0.08,-0.08 0.11,-0.197 0.075,-0.304 z"
     fill="#ef9546"
     fill-rule="nonzero"
     id="path2-6" />
  <path
     d="m 119.06482,6.049016 a 0.297,0.297 0 0 0 -0.24,-0.202 l -5.36,-0.779 -2.397,-4.85600006 a 0.296,0.296 0 0 0 -0.53,0 l -2.399,4.85700006 -5.36,0.779 a 0.297,0.297 0 0 0 -0.165,0.505 l 3.88,3.779999 -0.917,5.34 a 0.297,0.297 0 0 0 0.43,0.312 l 4.795,-2.52 4.794,2.52 a 0.296,0.296 0 0 0 0.43,-0.313 l -0.916,-5.338 3.88,-3.781999 c 0.08,-0.08 0.11,-0.197 0.075,-0.304 z"
     fill="#ef9546"
     fill-rule="nonzero"
     id="path2-2" />
</svg>
